<svg xmlns="http://www.w3.org/2000/svg" width="1794" height="993" viewBox="0 0 1794 993"><g><g opacity=".4"><g opacity=".4"><path fill="#2e253a" d="M1536.532 859.867c2.922 1.596 7.438 1.596 10.095 0 2.922-1.596 2.922-4.255 0-5.85-2.922-1.596-7.438-1.596-10.095 0-2.656 1.595-2.656 4.254 0 5.85z"/></g><g opacity=".4"><path fill="#2e253a" d="M1332.782 846.567c2.922 1.596 7.438 1.596 10.094 0 2.922-1.596 2.922-4.255 0-5.85-2.922-1.596-7.438-1.596-10.094 0-2.923 1.595-2.923 4.254 0 5.85z"/></g><g opacity=".4"><path fill="#2e253a" d="M1241.672 896.837c2.922 1.595 7.438 1.595 10.094 0 2.922-1.596 2.922-4.255 0-5.85-2.922-1.596-7.438-1.596-10.094 0-2.923 1.595-2.923 4.254 0 5.85z"/></g><g opacity=".4"><path fill="#2e253a" d="M1651.282 683.827c2.922 1.595 7.438 1.595 10.095 0 2.922-1.596 2.922-4.255 0-5.85-2.922-1.596-7.438-1.596-10.095 0-2.656 1.595-2.656 4.254 0 5.85z"/></g><g opacity=".4"><g opacity=".4"><path fill="#2e253a" d="M973.375 612.558l-.531-.266L782.38 502.199l1.328-.798L973.375 391.84l.531.266 190.464 110.093-1.328.798zM785.568 502.199l187.807 108.497 187.808-108.497-187.808-108.497z"/></g><g opacity=".4"><path fill="#2e253a" d="M1043.767 433.851l-.797-1.329 130.96-75.789V232.546l.532-.266 378.006-218.59.796 1.33-377.74 218.324v124.187l-.265.266z"/></g><g opacity=".4"><path fill="#2e253a" d="M1213.774 210.749h-1.594V96.136l.266-.266 161.509-93.34.797 1.596-160.978 92.807z"/></g><g opacity=".4"><path fill="#2e253a" d="M1068.467 448.221l-.797-1.33 128.304-74.193h222.872l195.511-113.018h34.268l.265.266 138.133 79.777-.797 1.33-137.867-79.777h-33.471l-195.511 113.018H1196.24z"/></g><g opacity=".4"><path fill="#2e253a" d="M878.275 448.214L620.604 299.296H466.799l-96.959-56.11V152.24h1.594v89.883L467.33 297.7h153.806l257.936 149.184z"/></g><g opacity=".4"><path fill="#2e253a" d="M909.091 430.396L647.435 279.085v-89.883L553.93 135.22l.797-1.33 94.302 54.515v89.882l260.859 150.78z"/></g><g opacity=".4"><path fill="#2e253a" d="M941.497 411.781L787.16 322.696v-77.118l.531-.266L1054.66 90.81l.797 1.33-266.702 154.236v75.257l153.54 88.553z"/></g><g opacity=".4"><path fill="#2e253a" d="M111.638 754.298h-.531L6.71 693.933l.797-1.33 104.396 60.099h235.889l170.541-98.658h141.055L853.57 542.09l.797 1.33-194.448 112.22H518.864l-170.541 98.658z"/></g><g opacity=".4"><path fill="#2e253a" d="M402.247 685.684l-.797-1.33 84.474-48.93h162.04L831.521 529.32l.797 1.33L648.23 637.02H486.455z"/></g><g opacity=".4"><path fill="#2e253a" d="M747.308 579.321l-134.68-77.915h-96.161l-62.16 35.9-.797-1.33 62.691-36.166h96.959l134.945 78.182z"/></g><g opacity=".4"><path fill="#2e253a" d="M380.997 773.705l-.797-1.33 75.176-43.346V691.8h1.594v38.027l-.266.266z"/></g><g opacity=".4"><path fill="#2e253a" d="M916.523 207.82H855.16v-1.596h61.097l109.178-63.024.797 1.33z"/></g><g opacity=".4"><path fill="#2e253a" d="M913.337 393.964h-1.594v-39.623l-75.973-43.877V267.65h1.594v42.016l75.973 43.878z"/></g><g opacity=".4"><path fill="#2e253a" d="M1337.569 844.446l-132.289-76.321V643.672L1062.1 560.97l.797-1.33 143.977 83.234v124.187l131.492 76.055z"/></g><g opacity=".4"><path fill="#2e253a" d="M1248.31 895.763l-52.331-30.316v-54.78l-51.003-29.252V635.688L1038.72 574.26l1.063-1.33 106.787 61.695V780.35l51.003 29.518v54.781l51.534 29.783z"/></g><g opacity=".4"><path fill="#2e253a" d="M1656.062 681.703l-41.44-23.933h-88.193l-158.852-91.745h-139.461l-.266-.265-87.13-50.26.797-1.33 86.864 50.26h139.992l158.588 91.744h88.192l.266.266 41.44 23.933z"/></g><g opacity=".4"><path fill="#2e253a" d="M1566.01 618.677l-55.253-31.911H1403.97v-1.596h107.053l.266.266 55.518 31.911z"/></g><g opacity=".4"><path fill="#2e253a" d="M1541.312 857.47l-204.809-118.337v-61.694l-238.013-137.75.797-1.329 238.81 138.015v61.961l204.012 117.804z"/></g><g opacity=".4"><path fill="#2e253a" d="M1093.977 463.106l-.797-1.596 92.443-53.45h258.467l186.48-107.7.796 1.33-187.01 107.965h-258.202z"/></g><g opacity=".4"><path fill="#2e253a" d="M1303.028 440.241h-.266L1249.9 409.66l.797-1.33 52.597 30.315h142.383v1.596z"/></g><g opacity=".4"><path fill="#2e253a" d="M920.775 988.041h-1.594v-86.692L713.31 782.215v-95.733l.266-.266L908.555 573.73l.797 1.33-194.448 112.486v93.871l205.871 118.869z"/></g><g opacity=".4"><path fill="#2e253a" d="M961.148 876.888l-70.926-40.952H806.28v-1.596h84.474l71.191 41.218z"/></g><g opacity=".4"><path fill="#2e253a" d="M936.13 589.685l-143.137 82.62.796 1.382 143.137-82.62z"/></g><g opacity=".4"><path fill="#2e253a" d="M1091.315 881.412h-1.86V639.154l-81.285-47.068.797-1.596 82.348 47.6z"/></g><g opacity=".4"><path fill="#2e253a" d="M1049.084 846.311h-1.594v-84.83l.266-.266 42.236-24.465.797 1.596-41.705 23.933z"/></g><g opacity=".4"><path fill="#2e253a" d="M1620.732 541.56l-128.039-74.193H1294.26l-65.347-37.761h-31.611l-80.755 46.536-.797-1.33 81.02-46.802h32.674l65.347 37.761h198.168l.265.266 128.305 74.193z"/></g><g opacity=".4"><path fill="#2e253a" d="M797.785 702.438H745.72v-1.595h51.534l165.494-95.733.797 1.33z"/></g><g opacity=".4"><path fill="#2e253a" d="M885.977 742.062l-.797-1.33 135.211-78.182v-31.645l-39.58-23.135.796-1.33 40.378 23.401v33.507l-.266.266z"/></g><g opacity=".4"><path fill="#2e253a" d="M876.947 717.602l-.797-1.33 60.832-35.102h51.003v1.595h-50.472z"/></g><g opacity=".4"><path fill="#2e253a" d="M878.007 792.591l-.797-1.33 62.425-35.9v-28.985l.266-.266 70.66-40.687V668.67h1.594v17.551l-.266.266-70.66 40.687v28.985l-.531.266z"/></g><g opacity=".4"><path fill="#2e253a" d="M871.632 719.987c2.922 1.595 7.437 1.595 10.094 0 2.922-1.596 2.922-4.255 0-5.85-2.922-1.596-7.438-1.596-10.094 0-2.923 1.595-2.923 4.254 0 5.85z"/></g><g opacity=".4"><path fill="#2e253a" d="M880.402 744.187c2.922 1.596 7.438 1.596 10.094 0 2.922-1.596 2.922-4.255 0-5.85-2.922-1.596-7.438-1.596-10.094 0-2.923 1.595-2.923 4.254 0 5.85z"/></g><g opacity=".4"><path fill="#2e253a" d="M1025.172 730.097c2.922 1.596 7.438 1.596 10.094 0 2.922-1.595 2.922-4.255 0-5.85-2.922-1.596-7.438-1.596-10.094 0-2.923 1.595-2.923 4.255 0 5.85z"/></g><g opacity=".4"><path fill="#2e253a" d="M1328.802 511.507c2.922 1.596 7.438 1.596 10.095 0 2.922-1.595 2.922-4.255 0-5.85-2.922-1.596-7.438-1.596-10.095 0-2.656 1.595-2.656 4.255 0 5.85z"/></g><g opacity=".4"><path fill="#2e253a" d="M1524.842 555.387c2.922 1.596 7.437 1.596 10.094 0 2.922-1.596 2.922-4.255 0-5.85-2.922-1.596-7.438-1.596-10.094 0-2.923 1.595-2.923 4.254 0 5.85z"/></g><g opacity=".4"><path fill="#2e253a" d="M1266.902 481.457c2.922 1.596 7.438 1.596 10.094 0 2.922-1.596 2.922-4.255 0-5.85-2.922-1.596-7.438-1.596-10.094 0-2.923 1.595-2.923 4.254 0 5.85z"/></g><g opacity=".4"><path fill="#2e253a" d="M1244.592 530.117c2.922 1.596 7.438 1.596 10.094 0 2.923-1.596 2.923-4.255 0-5.85-2.922-1.596-7.437-1.596-10.094 0-2.656 1.595-2.656 4.254 0 5.85z"/></g><g opacity=".4"><path fill="#2e253a" d="M914.932 990.967c2.922 1.596 7.438 1.596 10.094 0 2.922-1.596 2.922-4.255 0-5.85-2.922-1.596-7.438-1.596-10.094 0-2.923 1.595-2.923 4.254 0 5.85z"/></g><g opacity=".4"><path fill="#2e253a" d="M956.372 879.017c2.922 1.595 7.438 1.595 10.095 0 2.922-1.596 2.922-4.255 0-5.85-2.922-1.596-7.438-1.596-10.095 0-2.656 1.595-2.656 4.254 0 5.85z"/></g><g opacity=".4"><path fill="#2e253a" d="M281.642 980.867c2.922 1.596 7.437 1.596 10.094 0 2.922-1.596 2.922-4.255 0-5.85-2.922-1.596-7.438-1.596-10.094 0-2.923 1.595-2.923 4.254 0 5.85z"/></g><g opacity=".4"><path fill="#2e253a" d="M528.692 986.187c2.922 1.596 7.438 1.596 10.095 0 2.922-1.595 2.922-4.255 0-5.85-2.922-1.596-7.438-1.596-10.095 0-2.656 1.595-2.656 4.255 0 5.85z"/></g><g opacity=".4"><path fill="#2e253a" d="M602.802 817.317c2.922 1.596 7.438 1.596 10.095 0 2.922-1.596 2.922-4.255 0-5.85-2.922-1.596-7.438-1.596-10.095 0-2.656 1.595-2.656 4.254 0 5.85z"/></g><g opacity=".4"><path fill="#2e253a" d="M1440.632 442.367c2.922 1.596 7.437 1.596 10.094 0 2.922-1.596 2.922-4.255 0-5.85-2.922-1.596-7.438-1.596-10.094 0-2.923 1.595-2.923 4.254 0 5.85z"/></g><g opacity=".4"><path fill="#2e253a" d="M1625.782 304.087c2.922 1.596 7.438 1.596 10.095 0 2.922-1.596 2.922-4.255 0-5.85-2.922-1.596-7.438-1.596-10.095 0-2.656 1.595-2.656 4.254 0 5.85z"/></g><g opacity=".4"><path fill="#2e253a" d="M1781.712 343.437c2.922 1.596 7.437 1.596 10.094 0 2.922-1.596 2.922-4.255 0-5.85-2.922-1.596-7.438-1.596-10.094 0-2.923 1.595-2.923 4.254 0 5.85z"/></g><g opacity=".4"><path fill="#2e253a" d="M1370.502 7.047c2.922 1.596 7.437 1.596 10.094 0 2.922-1.596 2.922-4.255 0-5.85-2.922-1.596-7.438-1.596-10.094 0-2.923 1.595-2.923 3.989 0 5.85z"/></g><g opacity=".4"><path fill="#2e253a" d="M872.692 794.987c2.922 1.596 7.437 1.596 10.094 0 2.922-1.595 2.922-4.255 0-5.85-2.922-1.596-7.438-1.596-10.094 0-2.923 1.595-2.923 4.255 0 5.85z"/></g><g opacity=".4"><path fill="#2e253a" d="M1043.232 849.227c2.922 1.596 7.437 1.596 10.094 0 2.922-1.596 2.922-4.255 0-5.85-2.922-1.596-7.438-1.596-10.094 0-2.923 1.595-2.923 4.254 0 5.85z"/></g><g opacity=".4"><path fill="#2e253a" d="M1085.202 885.927c2.922 1.596 7.438 1.596 10.095 0 2.922-1.596 2.922-4.255 0-5.85-2.922-1.596-7.438-1.596-10.095 0-2.656 1.595-2.656 4.254 0 5.85z"/></g><g opacity=".4"><path fill="#2e253a" d="M1561.232 621.067c2.922 1.595 7.438 1.595 10.095 0 2.922-1.596 2.922-4.255 0-5.85-2.922-1.596-7.438-1.596-10.095 0-2.656 1.595-2.656 4.254 0 5.85z"/></g><g opacity=".4"><path fill="#2e253a" d="M1433.192 675.317c2.922 1.596 7.438 1.596 10.095 0 2.922-1.596 2.922-4.255 0-5.85-2.922-1.596-7.438-1.596-10.095 0-2.656 1.595-2.656 4.255 0 5.85z"/></g><g opacity=".4"><path fill="#2e253a" d="M1615.952 543.947c2.922 1.596 7.438 1.596 10.095 0 2.922-1.595 2.922-4.255 0-5.85-2.922-1.596-7.438-1.596-10.095 0-2.656 1.595-2.656 4.255 0 5.85z"/></g><g opacity=".4"><path fill="#2e253a" d="M740.672 704.567c2.922 1.596 7.437 1.596 10.094 0 2.922-1.596 2.922-4.255 0-5.85-2.922-1.596-7.438-1.596-10.094 0-2.923 1.595-2.923 4.254 0 5.85z"/></g><g opacity=".4"><path fill="#2e253a" d="M451.922 537.567c2.922 1.596 7.438 1.596 10.095 0 2.922-1.596 2.922-4.255 0-5.85-2.922-1.596-7.438-1.596-10.095 0-2.656 1.861-2.656 4.254 0 5.85z"/></g><g opacity=".4"><path fill="#2e253a" d="M574.112 434.387c2.922 1.596 7.438 1.596 10.095 0 2.922-1.596 2.922-4.255 0-5.85-2.923-1.596-7.438-1.596-10.095 0-2.656 1.595-2.656 4.254 0 5.85z"/></g><g opacity=".4"><path fill="#2e253a" d="M643.182 470.017c2.922 1.596 7.438 1.596 10.095 0 2.922-1.596 2.922-4.255 0-5.85-2.922-1.596-7.438-1.596-10.095 0-2.656 1.595-2.656 4.254 0 5.85z"/></g><g opacity=".4"><path fill="#2e253a" d="M709.592 414.177c2.922 1.596 7.438 1.596 10.095 0 2.922-1.596 2.922-4.255 0-5.85-2.922-1.596-7.438-1.596-10.095 0-2.656 1.595-2.656 3.989 0 5.85z"/></g><g opacity=".4"><path fill="#2e253a" d="M831.522 270.577c2.922 1.596 7.438 1.596 10.095 0 2.922-1.596 2.922-4.255 0-5.85-2.922-1.596-7.438-1.596-10.095 0-2.656 1.595-2.656 4.254 0 5.85z"/></g><g opacity=".4"><path fill="#2e253a" d="M363.992 155.967c2.922 1.596 7.437 1.596 10.094 0 2.922-1.596 2.922-4.255 0-5.85-2.922-1.596-7.438-1.596-10.094 0-2.923 1.595-2.923 4.254 0 5.85z"/></g><g opacity=".4"><path fill="#2e253a" d="M549.142 137.347c2.922 1.596 7.437 1.596 10.094 0 2.922-1.596 2.922-4.255 0-5.85-2.922-1.596-7.438-1.596-10.094 0-2.923 1.595-2.923 4.254 0 5.85z"/></g><g opacity=".4"><path fill="#2e253a" d="M916.792 280.417c2.922 1.596 7.437 1.596 10.094 0 2.922-1.596 2.922-4.255 0-5.85-2.922-1.596-7.438-1.596-10.094 0-2.923 1.595-2.923 4.254 0 5.85z"/></g><g opacity=".4"><path fill="#2e253a" d="M926.092 228.297c2.922 1.596 7.437 1.596 10.094 0 2.922-1.596 2.922-4.255 0-5.85-2.922-1.596-7.438-1.596-10.094 0-2.923 1.595-2.923 4.254 0 5.85z"/></g><g opacity=".4"><path fill="#2e253a" d="M1072.722 166.597c2.922 1.596 7.438 1.596 10.094 0 2.922-1.596 2.922-4.255 0-5.85-2.922-1.596-7.438-1.596-10.094 0-2.923 1.595-2.923 4.254 0 5.85z"/></g><g opacity=".4"><path fill="#2e253a" d="M1020.922 146.657c2.922 1.596 7.437 1.596 10.094 0 2.922-1.596 2.922-4.255 0-5.85-2.922-1.596-7.438-1.596-10.094 0-2.923 1.595-2.923 4.254 0 5.85z"/></g><g opacity=".4"><path fill="#2e253a" d="M1547.952 17.157c2.922 1.596 7.437 1.596 10.094 0 2.922-1.596 2.922-4.255 0-5.85-2.922-1.596-7.438-1.596-10.094 0-2.923 1.861-2.923 4.254 0 5.85z"/></g><g opacity=".4"><path fill="#2e253a" d="M1050.142 94.537c2.922 1.596 7.438 1.596 10.094 0 2.922-1.596 2.922-4.255 0-5.85-2.922-1.596-7.438-1.596-10.094 0-2.923 1.595-2.923 4.254 0 5.85z"/></g><g opacity=".4"><path fill="#2e253a" d="M738.812 529.587c2.922 1.596 7.437 1.596 10.094 0 2.922-1.596 2.922-4.255 0-5.85-2.922-1.596-7.438-1.596-10.094 0-2.923 1.595-2.923 3.989 0 5.85z"/></g><g opacity=".4"><path fill="#2e253a" d="M1079.892 356.467c2.922 1.596 7.438 1.596 10.095 0 2.922-1.596 2.922-4.255 0-5.85-2.922-1.596-7.438-1.596-10.095 0-2.656 1.595-2.656 4.254 0 5.85z"/></g><g opacity=".4"><path fill="#2e253a" d="M1374.222 254.357c2.922 1.596 7.437 1.596 10.094 0 2.656-1.596 2.922-4.255 0-5.85-2.922-1.596-7.438-1.596-10.094 0-2.923 1.595-2.923 4.254 0 5.85z"/></g><g opacity=".4"><path fill="#2e253a" d="M1589.122 143.197c2.922 1.596 7.438 1.596 10.095 0 2.922-1.596 2.922-4.255 0-5.85-2.922-1.596-7.438-1.596-10.095 0-2.656 1.595-2.656 4.254 0 5.85z"/></g><g opacity=".4"><path fill="#2e253a" d="M1521.922 125.117c2.922 1.596 7.438 1.596 10.094 0 2.922-1.596 2.922-4.255 0-5.85-2.922-1.596-7.437-1.596-10.094 0-2.656 1.595-2.656 4.254 0 5.85z"/></g><g opacity=".4"><path fill="#2e253a" d="M617.682 536.767c2.922 1.596 7.438 1.596 10.095 0 2.922-1.596 2.922-4.255 0-5.85-2.922-1.596-7.438-1.596-10.095 0-2.656 1.595-2.656 4.254 0 5.85z"/></g><g opacity=".4"><path fill="#2e253a" d="M375.682 776.097c2.922 1.596 7.437 1.596 10.094 0 2.922-1.596 2.922-4.255 0-5.85-2.922-1.596-7.438-1.596-10.094 0-2.923 1.595-2.923 4.254 0 5.85z"/></g><g opacity=".4"><path fill="#2e253a" d="M278.462 520.547c2.922 1.596 7.437 1.596 10.094 0 2.922-1.596 2.922-4.255 0-5.85-2.922-1.596-7.438-1.596-10.094 0-2.923 1.595-2.923 4.254 0 5.85z"/></g><g opacity=".4"><path fill="#2e253a" d="M396.662 686.487c2.922 1.596 7.438 1.596 10.095 0 2.922-1.595 2.922-4.255 0-5.85-2.922-1.596-7.438-1.596-10.095 0-2.656 1.595-2.656 4.255 0 5.85z"/></g><g opacity=".4"><path fill="#2e253a" d="M2.192 696.057c2.922 1.596 7.437 1.596 10.094 0 2.922-1.596 2.922-4.255 0-5.85-2.922-1.596-7.438-1.596-10.094 0-2.923 1.595-2.923 4.254 0 5.85z"/></g><g opacity=".4"><path fill="#2e253a" d="M788.222 676.117c2.922 1.595 7.438 1.595 10.095 0 2.922-1.596 2.922-4.255 0-5.85-2.922-1.596-7.438-1.596-10.095 0-2.656 1.595-2.656 3.988 0 5.85z"/></g><g opacity=".4"><path fill="#2e253a" d="M1090.064 692.137l-60.055 34.682.796 1.382 60.056-34.682z"/></g><g opacity=".4"><path fill="#2e253a" d="M808.143 544.477h-34.799L742.53 526.66l.797-1.33 30.548 17.551h34.268z"/></g><g opacity=".4"><path fill="#2e253a" d="M579.697 431.994l-.797-1.33L662.842 382h57.379v.266l74.113 42.814h46.753v1.595h-47.284v-.266l-74.114-42.813h-56.315z"/></g><g opacity=".4"><path fill="#2e253a" d="M798.58 494.224l-83.943-48.398h-27.626l-36.924 21.273-.797-1.33 37.455-21.539h28.424l84.207 48.664z"/></g><g opacity=".4"><path fill="#2e253a" d="M776.795 480.132h-1.593v-32.974L714.37 411.79l.797-1.33 61.628 35.634z"/></g><g opacity=".4"><path fill="#2e253a" d="M1263.456 550.332h-62.426v-1.596h61.894l70.66-40.686.797 1.33z"/></g><g opacity=".4"><path fill="#2e253a" d="M286.957 978.735l-.797-1.33 214.637-124.187v-78.98h.531L878.272 556.18l.797 1.596-376.678 217.526v78.714l-.266.266z"/></g><g opacity=".4"><path fill="#2e253a" d="M1271.682 479.333l-53.394-30.847h-21.25l-28.424 16.487h-32.674v-1.596h32.142l28.424-16.487h22.314l53.659 30.847z"/></g><g opacity=".4"><path fill="#2e253a" d="M1021.72 421.087l-.797-1.33 101.209-58.503v-66.215l-115.022-66.481V203.56l.531-.266 69.598-40.155.797 1.33-69.332 40.154v23.136l115.022 66.481v68.077l-.531.266z"/></g><g opacity=".4"><path fill="#2e253a" d="M1045.894 406.733h-1.594V376.15l.531-.265 39.846-23.136.797 1.33-39.58 22.87z"/></g><g opacity=".4"><path fill="#2e253a" d="M1253.887 374.286l-.797-1.596 240.404-138.813v-36.165l.266-.266 99.881-57.706.797 1.33-99.35 57.44v36.431h-.531z"/></g><g opacity=".4"><path fill="#2e253a" d="M1342.084 273.243h-1.594V229.1l.531-.266L1526.704 121.4l.796 1.596-185.416 106.901z"/></g><g opacity=".4"><path fill="#2e253a" d="M1195.717 373.753l-.797-1.329 121.132-69.939v-15.423l.266-.266 62.425-36.166.797 1.596-61.894 35.633v15.424l-.532.266z"/></g><g opacity=".4"><path fill="#2e253a" d="M608.387 815.193l-.797-1.329 71.192-41.219v-46.27l34.798-19.945.797 1.33-34.002 19.678v46.005l-.265.266z"/></g><g opacity=".4"><path fill="#2e253a" d="M719.419 563.094h-47.816l-.265-.266-48.878-28.188.797-1.33 48.878 28.188h47.284z"/></g><g opacity=".4"><path fill="#2e253a" d="M458.824 619.739h-.265L284.83 519.219l.797-1.329L459.09 618.144h218.887v1.595z"/></g><g opacity=".4"><path fill="#2e253a" d="M994.093 404.336h-1.594v-84.83L922.37 278.82l.797-1.33 70.926 40.952z"/></g><g opacity=".4"><path fill="#2e253a" d="M993.557 354.607l-.797-1.329 51.003-29.518v-32.177L930.6 226.166l.797-1.596 113.959 65.95v34.304h-.265z"/></g><g opacity=".4"><path fill="#2e253a" d="M1437.979 673.193l-127.772-73.927H1201.56v-1.596H1310.738l128.038 73.927z"/></g><g opacity=".4"><path fill="#2e253a" d="M1452.584 553.256l-.266-.266-34.798-19.944H1293.2v-1.596h124.851l35.064 20.21h76.77v1.596z"/></g><g opacity=".4"><path fill="#2e253a" d="M1248.844 527.732l-57.91-33.506h-43.564v-1.596h44.096l58.175 33.772z"/></g><g opacity=".4"><path fill="#2e253a" d="M534.267 983.794l-.797-1.33 85.27-49.196v-73.927l.532-.266 114.491-66.215.796 1.33-114.225 65.949v73.927l-.265.266z"/></g></g></g></g></svg>