<svg width="70" height="65" viewBox="0 0 70 65" fill="none" xmlns="http://www.w3.org/2000/svg">
<path d="M55.1562 63.3125H14.8438C11.8754 63.3125 9.46875 60.9058 9.46875 57.9375V25.6875C9.46875 22.7192 11.8754 20.3125 14.8438 20.3125H55.1562C58.1246 20.3125 60.5312 22.7192 60.5312 25.6875V57.9375C60.5312 60.9058 58.1246 63.3125 55.1562 63.3125Z" fill="white"/>
<path d="M55.1563 20.3125H14.8438C11.8754 20.3125 9.46875 22.7192 9.46875 25.6875V54.2704C12.2879 54.91 15.2079 55.25 18.2031 55.25C37.6217 55.25 53.9738 41.1312 58.9591 21.8901C57.9862 20.9158 56.6424 20.3125 55.1563 20.3125Z" fill="white"/>
<path d="M9.46875 31.0625H4.09375C2.60891 31.0625 1.40625 32.2652 1.40625 33.75V49.875C1.40625 51.3598 2.60891 52.5625 4.09375 52.5625H9.46875V31.0625Z" fill="white"/>
<path d="M60.5312 31.0625H65.9062C67.3911 31.0625 68.5938 32.2652 68.5938 33.75V49.875C68.5938 51.3598 67.3911 52.5625 65.9062 52.5625H60.5312V31.0625Z" fill="white"/>
<path d="M22.9062 44.5H47.0938V45.8438C47.0938 52.5235 41.6798 57.9375 35 57.9375C28.3202 57.9375 22.9062 52.5235 22.9062 45.8438V44.5Z" fill="white"/>
<path d="M21.5625 39.125C23.7889 39.125 25.5938 37.3201 25.5938 35.0938C25.5938 32.8674 23.7889 31.0625 21.5625 31.0625C19.3361 31.0625 17.5312 32.8674 17.5312 35.0938C17.5312 37.3201 19.3361 39.125 21.5625 39.125Z" fill="white"/>
<path d="M48.4375 39.125C50.6639 39.125 52.4688 37.3201 52.4688 35.0938C52.4688 32.8674 50.6639 31.0625 48.4375 31.0625C46.2111 31.0625 44.4062 32.8674 44.4062 35.0938C44.4062 37.3201 46.2111 39.125 48.4375 39.125Z" fill="white"/>
<path d="M22.9062 14.9375H47.0938V20.3125H22.9062V14.9375Z" fill="white"/>
<path d="M35 9.5625C37.2264 9.5625 39.0312 7.75765 39.0312 5.53125C39.0312 3.30485 37.2264 1.5 35 1.5C32.7736 1.5 30.9688 3.30485 30.9688 5.53125C30.9688 7.75765 32.7736 9.5625 35 9.5625Z" fill="white"/>
<path d="M65.9062 29.5911H61.875V25.5599C61.875 21.8551 58.861 18.8411 55.1562 18.8411H48.4375V14.8098C48.4375 14.0681 47.8355 13.4661 47.0938 13.4661H36.3438V10.5878C38.655 9.98713 40.375 7.90029 40.375 5.4036C40.375 2.43928 37.9643 0.028595 35 0.028595C32.0357 0.028595 29.625 2.43928 29.625 5.4036C29.625 7.90029 31.345 9.98713 33.6562 10.5878V13.4661H22.9062C22.1645 13.4661 21.5625 14.0681 21.5625 14.8098V18.8411H14.8438C11.139 18.8411 8.125 21.8551 8.125 25.5599V29.5911H4.09375C1.87119 29.5911 0.0625 31.3998 0.0625 33.6224V49.7474C0.0625 51.9699 1.87119 53.7786 4.09375 53.7786H8.125V57.8099C8.125 61.5146 11.139 64.5286 14.8438 64.5286H55.1562C58.861 64.5286 61.875 61.5146 61.875 57.8099V53.7786H65.9062C68.1288 53.7786 69.9375 51.9699 69.9375 49.7474V33.6224C69.9375 31.3998 68.1288 29.5911 65.9062 29.5911ZM32.3125 5.4036C32.3125 3.92144 33.5178 2.7161 35 2.7161C36.4822 2.7161 37.6875 3.92144 37.6875 5.4036C37.6875 6.88575 36.4822 8.0911 35 8.0911C33.5178 8.0911 32.3125 6.88575 32.3125 5.4036ZM4.09375 51.0911C3.35334 51.0911 2.75 50.4878 2.75 49.7474V33.6224C2.75 32.8819 3.35334 32.2786 4.09375 32.2786H8.125V51.0911H4.09375ZM24.25 16.1536H45.75V18.8411H24.25V16.1536ZM59.1875 57.8099C59.1875 60.0324 57.3788 61.8411 55.1562 61.8411H14.8438C12.6212 61.8411 10.8125 60.0324 10.8125 57.8099V25.5599C10.8125 23.3373 12.6212 21.5286 14.8438 21.5286H55.1562C57.3788 21.5286 59.1875 23.3373 59.1875 25.5599V57.8099ZM67.25 49.7474C67.25 50.4878 66.6467 51.0911 65.9062 51.0911H61.875V32.2786H65.9062C66.6467 32.2786 67.25 32.8819 67.25 33.6224V49.7474Z" fill="#2D0D58"/>
<path d="M47.0938 43.0286H22.9062C22.1645 43.0286 21.5625 43.6306 21.5625 44.3723V45.7161C21.5625 53.1255 27.5906 59.1536 35 59.1536C42.4094 59.1536 48.4375 53.1255 48.4375 45.7161V44.3723C48.4375 43.6306 47.8355 43.0286 47.0938 43.0286ZM35 56.4661C29.0727 56.4661 24.25 51.6434 24.25 45.7161H45.75C45.75 51.6434 40.9273 56.4661 35 56.4661Z" fill="#2D0D58"/>
<path d="M26.9375 34.9661C26.9375 32.0018 24.5268 29.5911 21.5625 29.5911C18.5982 29.5911 16.1875 32.0018 16.1875 34.9661C16.1875 37.9304 18.5982 40.3411 21.5625 40.3411C24.5268 40.3411 26.9375 37.9304 26.9375 34.9661ZM18.875 34.9661C18.875 33.4839 20.0803 32.2786 21.5625 32.2786C23.0447 32.2786 24.25 33.4839 24.25 34.9661C24.25 36.4483 23.0447 37.6536 21.5625 37.6536C20.0803 37.6536 18.875 36.4483 18.875 34.9661Z" fill="#2D0D58"/>
<path d="M48.4375 29.5911C45.4732 29.5911 43.0625 32.0018 43.0625 34.9661C43.0625 37.9304 45.4732 40.3411 48.4375 40.3411C51.4018 40.3411 53.8125 37.9304 53.8125 34.9661C53.8125 32.0018 51.4018 29.5911 48.4375 29.5911ZM48.4375 37.6536C46.9553 37.6536 45.75 36.4483 45.75 34.9661C45.75 33.4839 46.9553 32.2786 48.4375 32.2786C49.9197 32.2786 51.125 33.4839 51.125 34.9661C51.125 36.4483 49.9197 37.6536 48.4375 37.6536Z" fill="#2D0D58"/>
</svg>
