<svg width="17" height="17" viewBox="0 0 17 17" fill="none" xmlns="http://www.w3.org/2000/svg">
<path d="M17 2.83327H0V14.1667H17V2.83327Z" fill="#F0F0F0"/>
<path d="M17 4.24981H0V5.66635H17V4.24981Z" fill="#D80027"/>
<path d="M17 7.08326H0V8.4998H17V7.08326Z" fill="#D80027"/>
<path d="M17 9.91636H0V11.3329H17V9.91636Z" fill="#D80027"/>
<path d="M17 12.7498H0V14.1663H17V12.7498Z" fill="#D80027"/>
<path d="M8.5 2.83327H0V8.93591H8.5V2.83327Z" fill="#2E52B2"/>
<path d="M3.31407 5.33316L3.17717 5.75431H2.73438L3.09267 6.01446L2.95577 6.43557L3.31407 6.17542L3.67213 6.43557L3.53527 6.01446L3.89356 5.75431H3.45073L3.31407 5.33316Z" fill="#F0F0F0"/>
<path d="M3.45073 7.27404L3.31407 6.85292L3.17717 7.27404H2.73438L3.09267 7.53422L2.95577 7.95533L3.31407 7.69515L3.67213 7.95533L3.53527 7.53422L3.89356 7.27404H3.45073Z" fill="#F0F0F0"/>
<path d="M1.57967 7.27404L1.44297 6.85292L1.30608 7.27404H0.863281L1.22158 7.53422L1.08468 7.95533L1.44297 7.69515L1.80107 7.95533L1.66421 7.53422L2.02244 7.27404H1.57967Z" fill="#F0F0F0"/>
<path d="M1.44297 5.33316L1.30608 5.75431H0.863281L1.22158 6.01446L1.08468 6.43557L1.44297 6.17542L1.80107 6.43557L1.66421 6.01446L2.02244 5.75431H1.57967L1.44297 5.33316Z" fill="#F0F0F0"/>
<path d="M3.31407 3.81334L3.17717 4.23452H2.73438L3.09267 4.4947L2.95577 4.91581L3.31407 4.65563L3.67213 4.91581L3.53527 4.4947L3.89356 4.23452H3.45073L3.31407 3.81334Z" fill="#F0F0F0"/>
<path d="M1.44297 3.81334L1.30608 4.23452H0.863281L1.22158 4.4947L1.08468 4.91581L1.44297 4.65563L1.80107 4.91581L1.66421 4.4947L2.02244 4.23452H1.57967L1.44297 3.81334Z" fill="#F0F0F0"/>
<path d="M5.18513 5.33316L5.04827 5.75431H4.60547L4.96373 6.01446L4.8269 6.43557L5.18513 6.17542L5.54326 6.43557L5.40636 6.01446L5.76466 5.75431H5.32186L5.18513 5.33316Z" fill="#F0F0F0"/>
<path d="M5.32186 7.27404L5.18513 6.85292L5.04827 7.27404H4.60547L4.96373 7.53422L4.8269 7.95533L5.18513 7.69515L5.54326 7.95533L5.40636 7.53422L5.76466 7.27404H5.32186Z" fill="#F0F0F0"/>
<path d="M7.19487 7.27404L7.05818 6.85292L6.92128 7.27404H6.47852L6.83674 7.53422L6.69988 7.95533L7.05818 7.69515L7.41627 7.95533L7.27938 7.53422L7.63767 7.27404H7.19487Z" fill="#F0F0F0"/>
<path d="M7.05818 5.33316L6.92128 5.75431H6.47852L6.83674 6.01446L6.69988 6.43557L7.05818 6.17542L7.41627 6.43557L7.27938 6.01446L7.63767 5.75431H7.19487L7.05818 5.33316Z" fill="#F0F0F0"/>
<path d="M5.18513 3.81334L5.04827 4.23452H4.60547L4.96373 4.4947L4.8269 4.91581L5.18513 4.65563L5.54326 4.91581L5.40636 4.4947L5.76466 4.23452H5.32186L5.18513 3.81334Z" fill="#F0F0F0"/>
<path d="M7.05818 3.81334L6.92128 4.23452H6.47852L6.83674 4.4947L6.69988 4.91581L7.05818 4.65563L7.41627 4.91581L7.27938 4.4947L7.63767 4.23452H7.19487L7.05818 3.81334Z" fill="#F0F0F0"/>
</svg>
